<svg width="390" height="120" viewBox="0 0 390 120" fill="none" xmlns="http://www.w3.org/2000/svg">
<path d="M117.622 91.3361C120.366 92.5155 123.301 93.1051 126.426 93.1051C128.179 93.1051 129.856 92.9479 131.457 92.6334C133.134 92.3975 134.773 91.9651 136.374 91.3361V78.9531C135.307 79.2676 134.278 79.5035 133.287 79.6607C132.372 79.8179 131.533 79.8966 130.771 79.8966C128.256 79.8966 126.54 79.0317 125.626 77.302C124.787 75.5723 124.368 72.9778 124.368 69.5184V46.4034H136.374V33.7845H124.368V18.2305L108.475 24.9483V33.7845H100.589V46.4034H108.475V74.1178C108.475 78.8352 109.313 82.5697 110.99 85.3215C112.667 88.0733 114.878 90.0782 117.622 91.3361Z" fill="#222222" style="fill:#222222;fill:color(display-p3 0.1333 0.1333 0.1333);fill-opacity:1;"/>
<path d="M150.2 90.2747C153.325 92.1616 157.289 93.1051 162.092 93.1051C165.903 93.1051 169.371 92.201 172.497 90.3926C174.71 89.1422 176.578 87.2339 178.099 84.6677V91.9258H193.878V33.7845H178.099V54.8947C178.099 59.5334 177.871 63.7004 177.413 67.3956C176.956 71.0122 175.927 73.882 174.326 76.0048C172.801 78.0489 170.324 79.071 166.894 79.071C164.073 79.071 161.939 78.4814 160.491 77.302C159.119 76.1227 158.166 74.5895 157.632 72.7026C157.175 70.7371 156.946 68.6142 156.946 66.3342V33.7845H141.282V69.8722C141.282 74.5109 142.006 78.5993 143.454 82.1373C144.902 85.5967 147.151 88.3092 150.2 90.2747Z" fill="#222222" style="fill:#222222;fill:color(display-p3 0.1333 0.1333 0.1333);fill-opacity:1;"/>
<path d="M215.498 91.3361C218.242 92.5155 221.177 93.1051 224.302 93.1051C226.055 93.1051 227.732 92.9479 229.333 92.6334C231.01 92.3975 232.649 91.9651 234.25 91.3361V78.9531C233.183 79.2676 232.154 79.5035 231.163 79.6607C230.248 79.8179 229.409 79.8966 228.647 79.8966C226.132 79.8966 224.417 79.0317 223.502 77.302C222.663 75.5723 222.244 72.9778 222.244 69.5184V46.4034H234.25V33.7845H222.244V18.2305L206.351 24.9483V33.7845H198.466V46.4034H206.351V74.1178C206.351 78.8352 207.189 82.5697 208.866 85.3215C210.543 88.0733 212.754 90.0782 215.498 91.3361Z" fill="#222222" style="fill:#222222;fill:color(display-p3 0.1333 0.1333 0.1333);fill-opacity:1;"/>
<path fill-rule="evenodd" clip-rule="evenodd" d="M251.305 90.6285C254.963 92.2796 259.308 93.1051 264.339 93.1051C267.617 93.1051 270.514 92.8299 273.029 92.2796C275.621 91.7292 278.098 90.8251 280.461 89.5671C282.901 88.3092 285.53 86.6581 288.351 84.6139L281.147 73.2923C279.013 75.1792 276.536 76.6337 273.715 77.6558C270.895 78.6779 268.074 79.189 265.254 79.189C261.748 79.189 258.737 78.3241 256.221 76.5944C253.706 74.7861 252.219 72.0736 251.762 68.457H289.494C289.647 67.2777 289.723 66.2163 289.723 65.2728C289.799 64.3293 289.837 63.5038 289.837 62.7962C289.837 58.5506 289.266 54.5802 288.122 50.8849C287.055 47.1897 285.416 44.0055 283.206 41.3323C280.995 38.5805 278.213 36.4577 274.859 34.9639C271.581 33.3914 267.77 32.6052 263.425 32.6052C258.546 32.6052 254.354 33.5094 250.847 35.3177C247.341 37.0474 244.52 39.406 242.386 42.3937C240.252 45.3027 238.651 48.5656 237.584 52.1822C236.593 55.7988 236.097 59.4548 236.097 63.15C236.097 67.0025 236.593 70.7371 237.584 74.3537C238.651 77.8917 240.29 81.0759 242.5 83.9063C244.787 86.7367 247.722 88.9774 251.305 90.6285ZM274.971 56.4278C274.942 54.9494 274.637 53.6128 274.058 52.418C273.525 51.0815 272.762 49.9414 271.771 48.998C270.781 48.0545 269.599 47.3469 268.227 46.8752C266.855 46.3248 265.33 46.0496 263.653 46.0496C260.985 46.0496 258.775 46.6 257.022 47.7007C255.345 48.7228 254.049 50.0201 253.134 51.5925C252.296 53.165 251.762 54.7767 251.533 56.4278H274.971Z" fill="#222222" style="fill:#222222;fill:color(display-p3 0.1333 0.1333 0.1333);fill-opacity:1;"/>
<path d="M311.55 41.8568C311.729 41.5191 311.92 41.187 312.121 40.8606C313.798 38.266 315.895 36.2612 318.41 34.8459C320.926 33.3521 323.517 32.6052 326.185 32.6052C328.091 32.6052 329.92 32.8804 331.673 33.4307C333.427 33.9811 335.294 34.8853 337.276 36.1432L329.73 50.767C328.891 50.2166 327.786 49.7449 326.414 49.3518C325.118 48.88 323.784 48.6442 322.412 48.6442C321.04 48.6442 319.706 48.9194 318.41 49.4697C317.114 50.0201 315.971 50.8456 314.98 51.9463C313.989 52.9684 313.188 54.3443 312.579 56.074C312.198 57.1747 311.893 58.5899 311.664 60.3196C311.511 61.9707 311.435 64.4473 311.435 67.7494V91.9258H295.771V33.7845H311.55V41.8568Z" fill="#222222" style="fill:#222222;fill:color(display-p3 0.1333 0.1333 0.1333);fill-opacity:1;"/>
<path fill-rule="evenodd" clip-rule="evenodd" d="M346.665 89.2133C351.01 91.8078 355.927 93.1051 361.415 93.1051C366.903 93.1051 371.782 91.8078 376.05 89.2133C380.395 86.6188 383.787 83.0415 386.227 78.4814C388.742 73.8426 390 68.6143 390 62.7962C390 56.8995 388.742 51.6711 386.227 47.111C383.787 42.5509 380.395 39.0129 376.05 36.497C371.782 33.9025 366.903 32.6052 361.415 32.6052C355.85 32.6052 350.896 33.9025 346.551 36.497C342.282 39.0129 338.89 42.5509 336.374 47.111C333.935 51.6711 332.715 56.8995 332.715 62.7962C332.715 68.6143 333.935 73.8426 336.374 78.4814C338.89 83.0415 342.32 86.6188 346.665 89.2133ZM368.39 77.0662C366.484 78.3241 364.159 78.9531 361.415 78.9531C358.671 78.9531 356.308 78.3241 354.326 77.0662C352.42 75.8082 350.934 73.9606 349.867 71.5233C348.876 69.086 348.38 66.177 348.38 62.7962C348.38 59.3368 348.876 56.4278 349.867 54.0691C350.934 51.7104 352.42 49.9021 354.326 48.6442C356.308 47.3862 358.671 46.7572 361.415 46.7572C364.159 46.7572 366.484 47.3862 368.39 48.6442C370.295 49.9021 371.744 51.7104 372.735 54.0691C373.726 56.4278 374.221 59.3368 374.221 62.7962C374.221 66.177 373.726 69.086 372.735 71.5233C371.744 73.9606 370.295 75.8082 368.39 77.0662Z" fill="#222222" style="fill:#222222;fill:color(display-p3 0.1333 0.1333 0.1333);fill-opacity:1;"/>
<path opacity="0.62" fill-rule="evenodd" clip-rule="evenodd" d="M12.4709 52.5873C9.58945 46.9572 8.25195 43.2399 8.91479 38.1367C11.5249 18.0413 25.7531 8.77148 39.6897 8.77148C53.6263 8.77148 67.8545 18.0413 70.4646 38.1367C71.1274 43.2399 69.7899 46.9572 66.9085 52.5873C66.5138 53.3583 66.0867 54.1688 65.6375 55.0212L65.637 55.0222L65.6354 55.0251C62.8244 60.3591 59.1476 67.3358 57.1452 76.5667C56.1718 81.054 53.0368 83.1288 50.7998 83.1288H47.0808C45.5116 82.9196 44.2826 81.596 44.1618 79.993L44.1618 42.6957H53.6651C56.1349 42.6957 58.1372 40.6887 58.1372 38.2129C58.1372 35.7371 56.1349 33.73 53.6651 33.73H25.7143C23.2444 33.73 21.2422 35.7371 21.2422 38.2129C21.2422 40.6887 23.2444 42.6957 25.7143 42.6957H35.2176L35.2176 80.0401C35.0996 81.6176 33.8913 82.9213 32.3477 83.1288H28.5796C26.3426 83.1288 23.2076 81.054 22.2342 76.5667C20.2318 67.3357 16.555 60.3591 13.7439 55.0251C13.2939 54.1712 12.8661 53.3594 12.4709 52.5873Z" fill="#FFF5D6" style="fill:#FFF5D6;fill:color(display-p3 1.0000 0.9592 0.8375);fill-opacity:1;"/>
<path d="M17.0041 27.1248C16.6655 27.9814 17.6992 28.5705 18.3689 27.9372C20.9002 25.5434 23.8801 23.1395 27.1994 20.8752C29.9529 18.9969 32.7111 17.3707 35.3716 16.0237C36.1902 15.6092 35.985 14.4475 35.0675 14.4731C33.0483 14.5294 31.0033 14.8944 28.9952 15.5981C23.2896 17.5976 19.063 21.9169 17.0041 27.1248Z" fill="white" style="fill:white;fill:white;fill-opacity:1;"/>
<path fill-rule="evenodd" clip-rule="evenodd" d="M6.06479 59.2363C2.32079 52.1057 -0.920737 45.9321 0.238995 37.0033C6.64729 -12.3344 72.7328 -12.3344 79.1411 37.0033C80.3008 45.9321 77.0593 52.1057 73.3153 59.2363C70.5111 64.5771 67.4249 70.4548 65.6951 78.4291C64.1083 85.7439 58.268 91.898 50.8001 91.898H28.5799C21.1121 91.898 15.2717 85.7439 13.685 78.4291C11.9551 70.4548 8.86902 64.5771 6.06479 59.2363ZM12.4713 52.5861C9.58981 46.9561 8.25231 43.2388 8.91515 38.1356C11.5253 18.0401 25.7534 8.77034 39.69 8.77034C53.6267 8.77034 67.8548 18.0401 70.4649 38.1356C71.1278 43.2388 69.7903 46.9561 66.9088 52.5861C66.5142 53.3571 66.0871 54.1676 65.6378 55.0201L65.6358 55.0239C62.8247 60.358 59.1479 67.3346 57.1455 76.5656C56.1721 81.0528 53.0371 83.1276 50.8001 83.1276H47.0812C45.5119 82.9185 44.283 81.5948 44.1622 79.9919L44.1622 42.6964H53.6654C56.1353 42.6964 58.1375 40.6893 58.1375 38.2135C58.1375 35.7377 56.1353 33.7307 53.6654 33.7307H25.7147C23.2448 33.7307 21.2426 35.7377 21.2426 38.2135C21.2426 40.6893 23.2448 42.6964 25.7147 42.6964H35.2179L35.2179 80.039C35.1 81.6164 33.8916 82.9202 32.3481 83.1276H28.5799C26.3429 83.1276 23.208 81.0528 22.2346 76.5656C20.2321 67.3346 16.5554 60.3579 13.7443 55.0239C13.2943 54.1701 12.8665 53.3583 12.4713 52.5861Z" fill="url(#paint0_linear_1342_490)" style=""/>
<path d="M49.2444 111.103C51.7276 111.103 53.7406 113.094 53.7406 115.55C53.7406 118.006 51.7276 119.997 49.2444 119.997H30.1356C27.6525 119.997 25.6395 118.006 25.6395 115.55C25.6395 113.094 27.6525 111.103 30.1356 111.103H49.2444Z" fill="url(#paint1_linear_1342_490)" style=""/>
<path d="M58.2368 101.586C58.2368 99.1305 56.2238 97.1397 53.7406 97.1397H25.6395C23.1563 97.1397 21.1433 99.1305 21.1433 101.586C21.1433 104.042 23.1563 106.033 25.6395 106.033H53.7406C56.2238 106.033 58.2368 104.042 58.2368 101.586Z" fill="url(#paint2_linear_1342_490)" style=""/>
<defs>
<linearGradient id="paint0_linear_1342_490" x1="38.7026" y1="0" x2="38.7026" y2="119.997" gradientUnits="userSpaceOnUse">
<stop stop-color="#FF8412" style="stop-color:#FF8412;stop-color:color(display-p3 1.0000 0.5158 0.0716);stop-opacity:1;"/>
<stop offset="0.416859" stop-color="#F8B200" style="stop-color:#F8B200;stop-color:color(display-p3 0.9742 0.6990 0.0000);stop-opacity:1;"/>
<stop offset="0.738168" stop-color="#4CB092" style="stop-color:#4CB092;stop-color:color(display-p3 0.2979 0.6888 0.5727);stop-opacity:1;"/>
<stop offset="0.863835" stop-color="#00A3FF" style="stop-color:#00A3FF;stop-color:color(display-p3 0.0000 0.6392 1.0000);stop-opacity:1;"/>
<stop offset="1" stop-color="#1D49E3" style="stop-color:#1D49E3;stop-color:color(display-p3 0.1137 0.2863 0.8902);stop-opacity:1;"/>
</linearGradient>
<linearGradient id="paint1_linear_1342_490" x1="38.7026" y1="0" x2="38.7026" y2="119.997" gradientUnits="userSpaceOnUse">
<stop stop-color="#FF8412" style="stop-color:#FF8412;stop-color:color(display-p3 1.0000 0.5158 0.0716);stop-opacity:1;"/>
<stop offset="0.416859" stop-color="#F8B200" style="stop-color:#F8B200;stop-color:color(display-p3 0.9742 0.6990 0.0000);stop-opacity:1;"/>
<stop offset="0.738168" stop-color="#4CB092" style="stop-color:#4CB092;stop-color:color(display-p3 0.2979 0.6888 0.5727);stop-opacity:1;"/>
<stop offset="0.863835" stop-color="#00A3FF" style="stop-color:#00A3FF;stop-color:color(display-p3 0.0000 0.6392 1.0000);stop-opacity:1;"/>
<stop offset="1" stop-color="#1D49E3" style="stop-color:#1D49E3;stop-color:color(display-p3 0.1137 0.2863 0.8902);stop-opacity:1;"/>
</linearGradient>
<linearGradient id="paint2_linear_1342_490" x1="38.7026" y1="0" x2="38.7026" y2="119.997" gradientUnits="userSpaceOnUse">
<stop stop-color="#FF8412" style="stop-color:#FF8412;stop-color:color(display-p3 1.0000 0.5158 0.0716);stop-opacity:1;"/>
<stop offset="0.416859" stop-color="#F8B200" style="stop-color:#F8B200;stop-color:color(display-p3 0.9742 0.6990 0.0000);stop-opacity:1;"/>
<stop offset="0.738168" stop-color="#4CB092" style="stop-color:#4CB092;stop-color:color(display-p3 0.2979 0.6888 0.5727);stop-opacity:1;"/>
<stop offset="0.863835" stop-color="#00A3FF" style="stop-color:#00A3FF;stop-color:color(display-p3 0.0000 0.6392 1.0000);stop-opacity:1;"/>
<stop offset="1" stop-color="#1D49E3" style="stop-color:#1D49E3;stop-color:color(display-p3 0.1137 0.2863 0.8902);stop-opacity:1;"/>
</linearGradient>
</defs>
</svg>
